M48
; DRILL file {KiCad 7.0.10} date Mon Feb  5 11:36:34 2024
; FORMAT={-:-/ absolute / inch / decimal}
; #@! TF.CreationDate,2024-02-05T11:36:34+01:00
; #@! TF.GenerationSoftware,Kicad,Pcbnew,7.0.10
; #@! TF.FileFunction,Plated,1,2,PTH
FMAT,2
INCH
; #@! TA.AperFunction,Plated,PTH,ViaDrill
T1C0.0118
; #@! TA.AperFunction,Plated,PTH,ViaDrill
T2C0.0157
; #@! TA.AperFunction,Plated,PTH,ComponentDrill
T3C0.0256
; #@! TA.AperFunction,Plated,PTH,ComponentDrill
T4C0.0394
%
G90
G05
T1
X5.6698Y-3.4471
X5.8989Y-3.6621
X6.0378Y-3.7432
X6.145Y-3.6771
X6.1572Y-3.7515
X6.1623Y-3.0271
X6.5322Y-3.6466
X6.6615Y-3.3275
X6.7005Y-3.2885
X6.8652Y-2.7802
X6.8658Y-2.7369
T2
X6.2233Y-3.9782
X6.2249Y-4.2393
T3
X6.2363Y-3.2944
X6.2363Y-3.3444
X6.2363Y-3.3944
X6.2363Y-3.4444
X6.2363Y-3.4944
X6.2863Y-3.2944
X6.2863Y-3.3444
X6.2863Y-3.3944
X6.2863Y-3.4444
X6.2863Y-3.4944
T4
X5.0359Y-4.0865
X5.1359Y-4.0865
X5.2359Y-4.0865
X5.3359Y-4.0865
X5.4359Y-4.0865
X5.5359Y-4.0865
X5.7555Y-2.7215
X5.8555Y-2.7215
X5.8555Y-5.3061
X5.9555Y-2.7215
X5.9555Y-5.3061
X6.0555Y-2.7215
X6.4091Y-4.085
X6.4733Y-2.8779
X6.4733Y-2.9779
X6.4733Y-3.0779
X6.4733Y-3.1779
X6.5091Y-4.085
X6.6091Y-4.085
X6.7091Y-4.085
X6.8091Y-4.085
X6.9091Y-4.085
M30
