%TF.GenerationSoftware,KiCad,Pcbnew,7.0.10*%
%TF.CreationDate,2024-02-05T11:36:40+01:00*%
%TF.ProjectId,minimouse,6d696e69-6d6f-4757-9365-2e6b69636164,rev?*%
%TF.SameCoordinates,Original*%
%TF.FileFunction,Drillmap*%
%TF.FilePolarity,Positive*%
%FSLAX45Y45*%
G04 Gerber Fmt 4.5, Leading zero omitted, Abs format (unit mm)*
G04 Created by KiCad (PCBNEW 7.0.10) date 2024-02-05 11:36:40*
%MOMM*%
%LPD*%
G01*
G04 APERTURE LIST*
%ADD10C,0.200000*%
%ADD11C,0.050000*%
%ADD12C,0.100000*%
G04 APERTURE END LIST*
D10*
X19500000Y-10000000D02*
G75*
G03*
X10500000Y-10000000I-4500000J0D01*
G01*
X18150000Y-14000000D02*
X11850000Y-14000000D01*
X11850000Y-10000000D02*
X10500000Y-10000000D01*
X18150000Y-10000000D02*
X18150000Y-14000000D01*
X19500000Y-10000000D02*
X18150000Y-10000000D01*
X11850000Y-14000000D02*
X11850000Y-10000000D01*
D11*
X10790000Y-10600000D02*
X11633000Y-10600000D01*
X11633000Y-14000000D01*
X10790000Y-14000000D01*
X10790000Y-10600000D01*
X19210000Y-14000000D02*
X18367000Y-14000000D01*
X18367000Y-10600000D01*
X19210000Y-10600000D01*
X19210000Y-14000000D01*
D10*
D12*
X14386250Y-8740750D02*
X14416250Y-8770750D01*
X14416250Y-8740750D02*
X14386250Y-8770750D01*
X14968250Y-9286750D02*
X14998250Y-9316750D01*
X14998250Y-9286750D02*
X14968250Y-9316750D01*
X15321020Y-9492786D02*
X15351020Y-9522786D01*
X15351020Y-9492786D02*
X15321020Y-9522786D01*
X15593250Y-9324750D02*
X15623250Y-9354750D01*
X15623250Y-9324750D02*
X15593250Y-9354750D01*
X15624250Y-9513750D02*
X15654250Y-9543750D01*
X15654250Y-9513750D02*
X15624250Y-9543750D01*
X15637250Y-7673750D02*
X15667250Y-7703750D01*
X15667250Y-7673750D02*
X15637250Y-7703750D01*
X16576750Y-9247250D02*
X16606750Y-9277250D01*
X16606750Y-9247250D02*
X16576750Y-9277250D01*
X16905255Y-8436745D02*
X16935255Y-8466745D01*
X16935255Y-8436745D02*
X16905255Y-8466745D01*
X17004250Y-8337750D02*
X17034250Y-8367750D01*
X17034250Y-8337750D02*
X17004250Y-8367750D01*
X17422622Y-7046750D02*
X17452622Y-7076750D01*
X17452622Y-7046750D02*
X17422622Y-7076750D01*
X17424250Y-6936750D02*
X17454250Y-6966750D01*
X17454250Y-6936750D02*
X17424250Y-6966750D01*
X15827250Y-10104750D02*
G75*
G03*
X15787250Y-10104750I-20000J0D01*
G01*
X15787250Y-10104750D02*
G75*
G03*
X15827250Y-10104750I20000J0D01*
G01*
X15831250Y-10767750D02*
G75*
G03*
X15791250Y-10767750I-20000J0D01*
G01*
X15791250Y-10767750D02*
G75*
G03*
X15831250Y-10767750I20000J0D01*
G01*
X15840250Y-8335250D02*
X15840250Y-8400250D01*
X15807750Y-8367750D02*
X15872750Y-8367750D01*
X15840250Y-8462250D02*
X15840250Y-8527250D01*
X15807750Y-8494750D02*
X15872750Y-8494750D01*
X15840250Y-8589250D02*
X15840250Y-8654250D01*
X15807750Y-8621750D02*
X15872750Y-8621750D01*
X15840250Y-8716250D02*
X15840250Y-8781250D01*
X15807750Y-8748750D02*
X15872750Y-8748750D01*
X15840250Y-8843250D02*
X15840250Y-8908250D01*
X15807750Y-8875750D02*
X15872750Y-8875750D01*
X15967250Y-8335250D02*
X15967250Y-8400250D01*
X15934750Y-8367750D02*
X15999750Y-8367750D01*
X15967250Y-8462250D02*
X15967250Y-8527250D01*
X15934750Y-8494750D02*
X15999750Y-8494750D01*
X15967250Y-8589250D02*
X15967250Y-8654250D01*
X15934750Y-8621750D02*
X15999750Y-8621750D01*
X15967250Y-8716250D02*
X15967250Y-8781250D01*
X15934750Y-8748750D02*
X15999750Y-8748750D01*
X15967250Y-8843250D02*
X15967250Y-8908250D01*
X15934750Y-8875750D02*
X15999750Y-8875750D01*
X12826606Y-10415106D02*
X12826606Y-10344394D01*
X12755894Y-10344394D01*
X12755894Y-10415106D01*
X12826606Y-10415106D01*
X13080606Y-10415106D02*
X13080606Y-10344394D01*
X13009894Y-10344394D01*
X13009894Y-10415106D01*
X13080606Y-10415106D01*
X13334606Y-10415106D02*
X13334606Y-10344394D01*
X13263894Y-10344394D01*
X13263894Y-10415106D01*
X13334606Y-10415106D01*
X13588606Y-10415106D02*
X13588606Y-10344394D01*
X13517894Y-10344394D01*
X13517894Y-10415106D01*
X13588606Y-10415106D01*
X13842606Y-10415106D02*
X13842606Y-10344394D01*
X13771894Y-10344394D01*
X13771894Y-10415106D01*
X13842606Y-10415106D01*
X14096606Y-10415106D02*
X14096606Y-10344394D01*
X14025894Y-10344394D01*
X14025894Y-10415106D01*
X14096606Y-10415106D01*
X14654356Y-6947856D02*
X14654356Y-6877144D01*
X14583644Y-6877144D01*
X14583644Y-6947856D01*
X14654356Y-6947856D01*
X14908356Y-6947856D02*
X14908356Y-6877144D01*
X14837644Y-6877144D01*
X14837644Y-6947856D01*
X14908356Y-6947856D01*
X14908356Y-13512856D02*
X14908356Y-13442144D01*
X14837644Y-13442144D01*
X14837644Y-13512856D01*
X14908356Y-13512856D01*
X15162356Y-6947856D02*
X15162356Y-6877144D01*
X15091644Y-6877144D01*
X15091644Y-6947856D01*
X15162356Y-6947856D01*
X15162356Y-13512856D02*
X15162356Y-13442144D01*
X15091644Y-13442144D01*
X15091644Y-13512856D01*
X15162356Y-13512856D01*
X15416356Y-6947856D02*
X15416356Y-6877144D01*
X15345644Y-6877144D01*
X15345644Y-6947856D01*
X15416356Y-6947856D01*
X16314356Y-10411356D02*
X16314356Y-10340644D01*
X16243644Y-10340644D01*
X16243644Y-10411356D01*
X16314356Y-10411356D01*
X16477606Y-7345106D02*
X16477606Y-7274394D01*
X16406894Y-7274394D01*
X16406894Y-7345106D01*
X16477606Y-7345106D01*
X16477606Y-7599106D02*
X16477606Y-7528394D01*
X16406894Y-7528394D01*
X16406894Y-7599106D01*
X16477606Y-7599106D01*
X16477606Y-7853106D02*
X16477606Y-7782394D01*
X16406894Y-7782394D01*
X16406894Y-7853106D01*
X16477606Y-7853106D01*
X16477606Y-8107106D02*
X16477606Y-8036394D01*
X16406894Y-8036394D01*
X16406894Y-8107106D01*
X16477606Y-8107106D01*
X16568356Y-10411356D02*
X16568356Y-10340644D01*
X16497644Y-10340644D01*
X16497644Y-10411356D01*
X16568356Y-10411356D01*
X16822356Y-10411356D02*
X16822356Y-10340644D01*
X16751644Y-10340644D01*
X16751644Y-10411356D01*
X16822356Y-10411356D01*
X17076356Y-10411356D02*
X17076356Y-10340644D01*
X17005644Y-10340644D01*
X17005644Y-10411356D01*
X17076356Y-10411356D01*
X17330356Y-10411356D02*
X17330356Y-10340644D01*
X17259644Y-10340644D01*
X17259644Y-10411356D01*
X17330356Y-10411356D01*
X17584356Y-10411356D02*
X17584356Y-10340644D01*
X17513644Y-10340644D01*
X17513644Y-10411356D01*
X17584356Y-10411356D01*
D10*
X10750777Y-14321484D02*
X10750777Y-14121484D01*
X10750777Y-14121484D02*
X10798396Y-14121484D01*
X10798396Y-14121484D02*
X10826967Y-14131008D01*
X10826967Y-14131008D02*
X10846015Y-14150055D01*
X10846015Y-14150055D02*
X10855539Y-14169103D01*
X10855539Y-14169103D02*
X10865063Y-14207198D01*
X10865063Y-14207198D02*
X10865063Y-14235769D01*
X10865063Y-14235769D02*
X10855539Y-14273865D01*
X10855539Y-14273865D02*
X10846015Y-14292912D01*
X10846015Y-14292912D02*
X10826967Y-14311960D01*
X10826967Y-14311960D02*
X10798396Y-14321484D01*
X10798396Y-14321484D02*
X10750777Y-14321484D01*
X10950777Y-14321484D02*
X10950777Y-14188150D01*
X10950777Y-14226246D02*
X10960301Y-14207198D01*
X10960301Y-14207198D02*
X10969824Y-14197674D01*
X10969824Y-14197674D02*
X10988872Y-14188150D01*
X10988872Y-14188150D02*
X11007920Y-14188150D01*
X11074586Y-14321484D02*
X11074586Y-14188150D01*
X11074586Y-14121484D02*
X11065063Y-14131008D01*
X11065063Y-14131008D02*
X11074586Y-14140531D01*
X11074586Y-14140531D02*
X11084110Y-14131008D01*
X11084110Y-14131008D02*
X11074586Y-14121484D01*
X11074586Y-14121484D02*
X11074586Y-14140531D01*
X11198396Y-14321484D02*
X11179348Y-14311960D01*
X11179348Y-14311960D02*
X11169824Y-14292912D01*
X11169824Y-14292912D02*
X11169824Y-14121484D01*
X11303158Y-14321484D02*
X11284110Y-14311960D01*
X11284110Y-14311960D02*
X11274586Y-14292912D01*
X11274586Y-14292912D02*
X11274586Y-14121484D01*
X11531729Y-14321484D02*
X11531729Y-14121484D01*
X11531729Y-14121484D02*
X11598396Y-14264341D01*
X11598396Y-14264341D02*
X11665062Y-14121484D01*
X11665062Y-14121484D02*
X11665062Y-14321484D01*
X11846015Y-14321484D02*
X11846015Y-14216722D01*
X11846015Y-14216722D02*
X11836491Y-14197674D01*
X11836491Y-14197674D02*
X11817443Y-14188150D01*
X11817443Y-14188150D02*
X11779348Y-14188150D01*
X11779348Y-14188150D02*
X11760301Y-14197674D01*
X11846015Y-14311960D02*
X11826967Y-14321484D01*
X11826967Y-14321484D02*
X11779348Y-14321484D01*
X11779348Y-14321484D02*
X11760301Y-14311960D01*
X11760301Y-14311960D02*
X11750777Y-14292912D01*
X11750777Y-14292912D02*
X11750777Y-14273865D01*
X11750777Y-14273865D02*
X11760301Y-14254817D01*
X11760301Y-14254817D02*
X11779348Y-14245293D01*
X11779348Y-14245293D02*
X11826967Y-14245293D01*
X11826967Y-14245293D02*
X11846015Y-14235769D01*
X11941253Y-14188150D02*
X11941253Y-14388150D01*
X11941253Y-14197674D02*
X11960301Y-14188150D01*
X11960301Y-14188150D02*
X11998396Y-14188150D01*
X11998396Y-14188150D02*
X12017443Y-14197674D01*
X12017443Y-14197674D02*
X12026967Y-14207198D01*
X12026967Y-14207198D02*
X12036491Y-14226246D01*
X12036491Y-14226246D02*
X12036491Y-14283388D01*
X12036491Y-14283388D02*
X12026967Y-14302436D01*
X12026967Y-14302436D02*
X12017443Y-14311960D01*
X12017443Y-14311960D02*
X11998396Y-14321484D01*
X11998396Y-14321484D02*
X11960301Y-14321484D01*
X11960301Y-14321484D02*
X11941253Y-14311960D01*
X12122205Y-14302436D02*
X12131729Y-14311960D01*
X12131729Y-14311960D02*
X12122205Y-14321484D01*
X12122205Y-14321484D02*
X12112682Y-14311960D01*
X12112682Y-14311960D02*
X12122205Y-14302436D01*
X12122205Y-14302436D02*
X12122205Y-14321484D01*
X12122205Y-14197674D02*
X12131729Y-14207198D01*
X12131729Y-14207198D02*
X12122205Y-14216722D01*
X12122205Y-14216722D02*
X12112682Y-14207198D01*
X12112682Y-14207198D02*
X12122205Y-14197674D01*
X12122205Y-14197674D02*
X12122205Y-14216722D01*
D12*
X10460000Y-14635000D02*
X10490000Y-14665000D01*
X10490000Y-14635000D02*
X10460000Y-14665000D01*
D10*
X10788872Y-14541484D02*
X10807920Y-14541484D01*
X10807920Y-14541484D02*
X10826967Y-14551008D01*
X10826967Y-14551008D02*
X10836491Y-14560531D01*
X10836491Y-14560531D02*
X10846015Y-14579579D01*
X10846015Y-14579579D02*
X10855539Y-14617674D01*
X10855539Y-14617674D02*
X10855539Y-14665293D01*
X10855539Y-14665293D02*
X10846015Y-14703388D01*
X10846015Y-14703388D02*
X10836491Y-14722436D01*
X10836491Y-14722436D02*
X10826967Y-14731960D01*
X10826967Y-14731960D02*
X10807920Y-14741484D01*
X10807920Y-14741484D02*
X10788872Y-14741484D01*
X10788872Y-14741484D02*
X10769824Y-14731960D01*
X10769824Y-14731960D02*
X10760301Y-14722436D01*
X10760301Y-14722436D02*
X10750777Y-14703388D01*
X10750777Y-14703388D02*
X10741253Y-14665293D01*
X10741253Y-14665293D02*
X10741253Y-14617674D01*
X10741253Y-14617674D02*
X10750777Y-14579579D01*
X10750777Y-14579579D02*
X10760301Y-14560531D01*
X10760301Y-14560531D02*
X10769824Y-14551008D01*
X10769824Y-14551008D02*
X10788872Y-14541484D01*
X10941253Y-14722436D02*
X10950777Y-14731960D01*
X10950777Y-14731960D02*
X10941253Y-14741484D01*
X10941253Y-14741484D02*
X10931729Y-14731960D01*
X10931729Y-14731960D02*
X10941253Y-14722436D01*
X10941253Y-14722436D02*
X10941253Y-14741484D01*
X11017444Y-14541484D02*
X11141253Y-14541484D01*
X11141253Y-14541484D02*
X11074586Y-14617674D01*
X11074586Y-14617674D02*
X11103158Y-14617674D01*
X11103158Y-14617674D02*
X11122205Y-14627198D01*
X11122205Y-14627198D02*
X11131729Y-14636722D01*
X11131729Y-14636722D02*
X11141253Y-14655769D01*
X11141253Y-14655769D02*
X11141253Y-14703388D01*
X11141253Y-14703388D02*
X11131729Y-14722436D01*
X11131729Y-14722436D02*
X11122205Y-14731960D01*
X11122205Y-14731960D02*
X11103158Y-14741484D01*
X11103158Y-14741484D02*
X11046015Y-14741484D01*
X11046015Y-14741484D02*
X11026967Y-14731960D01*
X11026967Y-14731960D02*
X11017444Y-14722436D01*
X11265062Y-14541484D02*
X11284110Y-14541484D01*
X11284110Y-14541484D02*
X11303158Y-14551008D01*
X11303158Y-14551008D02*
X11312682Y-14560531D01*
X11312682Y-14560531D02*
X11322205Y-14579579D01*
X11322205Y-14579579D02*
X11331729Y-14617674D01*
X11331729Y-14617674D02*
X11331729Y-14665293D01*
X11331729Y-14665293D02*
X11322205Y-14703388D01*
X11322205Y-14703388D02*
X11312682Y-14722436D01*
X11312682Y-14722436D02*
X11303158Y-14731960D01*
X11303158Y-14731960D02*
X11284110Y-14741484D01*
X11284110Y-14741484D02*
X11265062Y-14741484D01*
X11265062Y-14741484D02*
X11246015Y-14731960D01*
X11246015Y-14731960D02*
X11236491Y-14722436D01*
X11236491Y-14722436D02*
X11226967Y-14703388D01*
X11226967Y-14703388D02*
X11217443Y-14665293D01*
X11217443Y-14665293D02*
X11217443Y-14617674D01*
X11217443Y-14617674D02*
X11226967Y-14579579D01*
X11226967Y-14579579D02*
X11236491Y-14560531D01*
X11236491Y-14560531D02*
X11246015Y-14551008D01*
X11246015Y-14551008D02*
X11265062Y-14541484D01*
X11455539Y-14541484D02*
X11474586Y-14541484D01*
X11474586Y-14541484D02*
X11493634Y-14551008D01*
X11493634Y-14551008D02*
X11503158Y-14560531D01*
X11503158Y-14560531D02*
X11512682Y-14579579D01*
X11512682Y-14579579D02*
X11522205Y-14617674D01*
X11522205Y-14617674D02*
X11522205Y-14665293D01*
X11522205Y-14665293D02*
X11512682Y-14703388D01*
X11512682Y-14703388D02*
X11503158Y-14722436D01*
X11503158Y-14722436D02*
X11493634Y-14731960D01*
X11493634Y-14731960D02*
X11474586Y-14741484D01*
X11474586Y-14741484D02*
X11455539Y-14741484D01*
X11455539Y-14741484D02*
X11436491Y-14731960D01*
X11436491Y-14731960D02*
X11426967Y-14722436D01*
X11426967Y-14722436D02*
X11417443Y-14703388D01*
X11417443Y-14703388D02*
X11407920Y-14665293D01*
X11407920Y-14665293D02*
X11407920Y-14617674D01*
X11407920Y-14617674D02*
X11417443Y-14579579D01*
X11417443Y-14579579D02*
X11426967Y-14560531D01*
X11426967Y-14560531D02*
X11436491Y-14551008D01*
X11436491Y-14551008D02*
X11455539Y-14541484D01*
X11607920Y-14741484D02*
X11607920Y-14608150D01*
X11607920Y-14627198D02*
X11617443Y-14617674D01*
X11617443Y-14617674D02*
X11636491Y-14608150D01*
X11636491Y-14608150D02*
X11665063Y-14608150D01*
X11665063Y-14608150D02*
X11684110Y-14617674D01*
X11684110Y-14617674D02*
X11693634Y-14636722D01*
X11693634Y-14636722D02*
X11693634Y-14741484D01*
X11693634Y-14636722D02*
X11703158Y-14617674D01*
X11703158Y-14617674D02*
X11722205Y-14608150D01*
X11722205Y-14608150D02*
X11750777Y-14608150D01*
X11750777Y-14608150D02*
X11769824Y-14617674D01*
X11769824Y-14617674D02*
X11779348Y-14636722D01*
X11779348Y-14636722D02*
X11779348Y-14741484D01*
X11874586Y-14741484D02*
X11874586Y-14608150D01*
X11874586Y-14627198D02*
X11884110Y-14617674D01*
X11884110Y-14617674D02*
X11903158Y-14608150D01*
X11903158Y-14608150D02*
X11931729Y-14608150D01*
X11931729Y-14608150D02*
X11950777Y-14617674D01*
X11950777Y-14617674D02*
X11960301Y-14636722D01*
X11960301Y-14636722D02*
X11960301Y-14741484D01*
X11960301Y-14636722D02*
X11969824Y-14617674D01*
X11969824Y-14617674D02*
X11988872Y-14608150D01*
X11988872Y-14608150D02*
X12017443Y-14608150D01*
X12017443Y-14608150D02*
X12036491Y-14617674D01*
X12036491Y-14617674D02*
X12046015Y-14636722D01*
X12046015Y-14636722D02*
X12046015Y-14741484D01*
X12436491Y-14531960D02*
X12265063Y-14789103D01*
X12693634Y-14541484D02*
X12712682Y-14541484D01*
X12712682Y-14541484D02*
X12731729Y-14551008D01*
X12731729Y-14551008D02*
X12741253Y-14560531D01*
X12741253Y-14560531D02*
X12750777Y-14579579D01*
X12750777Y-14579579D02*
X12760301Y-14617674D01*
X12760301Y-14617674D02*
X12760301Y-14665293D01*
X12760301Y-14665293D02*
X12750777Y-14703388D01*
X12750777Y-14703388D02*
X12741253Y-14722436D01*
X12741253Y-14722436D02*
X12731729Y-14731960D01*
X12731729Y-14731960D02*
X12712682Y-14741484D01*
X12712682Y-14741484D02*
X12693634Y-14741484D01*
X12693634Y-14741484D02*
X12674586Y-14731960D01*
X12674586Y-14731960D02*
X12665063Y-14722436D01*
X12665063Y-14722436D02*
X12655539Y-14703388D01*
X12655539Y-14703388D02*
X12646015Y-14665293D01*
X12646015Y-14665293D02*
X12646015Y-14617674D01*
X12646015Y-14617674D02*
X12655539Y-14579579D01*
X12655539Y-14579579D02*
X12665063Y-14560531D01*
X12665063Y-14560531D02*
X12674586Y-14551008D01*
X12674586Y-14551008D02*
X12693634Y-14541484D01*
X12846015Y-14722436D02*
X12855539Y-14731960D01*
X12855539Y-14731960D02*
X12846015Y-14741484D01*
X12846015Y-14741484D02*
X12836491Y-14731960D01*
X12836491Y-14731960D02*
X12846015Y-14722436D01*
X12846015Y-14722436D02*
X12846015Y-14741484D01*
X12979348Y-14541484D02*
X12998396Y-14541484D01*
X12998396Y-14541484D02*
X13017444Y-14551008D01*
X13017444Y-14551008D02*
X13026967Y-14560531D01*
X13026967Y-14560531D02*
X13036491Y-14579579D01*
X13036491Y-14579579D02*
X13046015Y-14617674D01*
X13046015Y-14617674D02*
X13046015Y-14665293D01*
X13046015Y-14665293D02*
X13036491Y-14703388D01*
X13036491Y-14703388D02*
X13026967Y-14722436D01*
X13026967Y-14722436D02*
X13017444Y-14731960D01*
X13017444Y-14731960D02*
X12998396Y-14741484D01*
X12998396Y-14741484D02*
X12979348Y-14741484D01*
X12979348Y-14741484D02*
X12960301Y-14731960D01*
X12960301Y-14731960D02*
X12950777Y-14722436D01*
X12950777Y-14722436D02*
X12941253Y-14703388D01*
X12941253Y-14703388D02*
X12931729Y-14665293D01*
X12931729Y-14665293D02*
X12931729Y-14617674D01*
X12931729Y-14617674D02*
X12941253Y-14579579D01*
X12941253Y-14579579D02*
X12950777Y-14560531D01*
X12950777Y-14560531D02*
X12960301Y-14551008D01*
X12960301Y-14551008D02*
X12979348Y-14541484D01*
X13236491Y-14741484D02*
X13122206Y-14741484D01*
X13179348Y-14741484D02*
X13179348Y-14541484D01*
X13179348Y-14541484D02*
X13160301Y-14570055D01*
X13160301Y-14570055D02*
X13141253Y-14589103D01*
X13141253Y-14589103D02*
X13122206Y-14598627D01*
X13426967Y-14741484D02*
X13312682Y-14741484D01*
X13369825Y-14741484D02*
X13369825Y-14541484D01*
X13369825Y-14541484D02*
X13350777Y-14570055D01*
X13350777Y-14570055D02*
X13331729Y-14589103D01*
X13331729Y-14589103D02*
X13312682Y-14598627D01*
X13541253Y-14627198D02*
X13522206Y-14617674D01*
X13522206Y-14617674D02*
X13512682Y-14608150D01*
X13512682Y-14608150D02*
X13503158Y-14589103D01*
X13503158Y-14589103D02*
X13503158Y-14579579D01*
X13503158Y-14579579D02*
X13512682Y-14560531D01*
X13512682Y-14560531D02*
X13522206Y-14551008D01*
X13522206Y-14551008D02*
X13541253Y-14541484D01*
X13541253Y-14541484D02*
X13579348Y-14541484D01*
X13579348Y-14541484D02*
X13598396Y-14551008D01*
X13598396Y-14551008D02*
X13607920Y-14560531D01*
X13607920Y-14560531D02*
X13617444Y-14579579D01*
X13617444Y-14579579D02*
X13617444Y-14589103D01*
X13617444Y-14589103D02*
X13607920Y-14608150D01*
X13607920Y-14608150D02*
X13598396Y-14617674D01*
X13598396Y-14617674D02*
X13579348Y-14627198D01*
X13579348Y-14627198D02*
X13541253Y-14627198D01*
X13541253Y-14627198D02*
X13522206Y-14636722D01*
X13522206Y-14636722D02*
X13512682Y-14646246D01*
X13512682Y-14646246D02*
X13503158Y-14665293D01*
X13503158Y-14665293D02*
X13503158Y-14703388D01*
X13503158Y-14703388D02*
X13512682Y-14722436D01*
X13512682Y-14722436D02*
X13522206Y-14731960D01*
X13522206Y-14731960D02*
X13541253Y-14741484D01*
X13541253Y-14741484D02*
X13579348Y-14741484D01*
X13579348Y-14741484D02*
X13598396Y-14731960D01*
X13598396Y-14731960D02*
X13607920Y-14722436D01*
X13607920Y-14722436D02*
X13617444Y-14703388D01*
X13617444Y-14703388D02*
X13617444Y-14665293D01*
X13617444Y-14665293D02*
X13607920Y-14646246D01*
X13607920Y-14646246D02*
X13598396Y-14636722D01*
X13598396Y-14636722D02*
X13579348Y-14627198D01*
X13693634Y-14541484D02*
X13693634Y-14579579D01*
X13769825Y-14541484D02*
X13769825Y-14579579D01*
X14065063Y-14817674D02*
X14055539Y-14808150D01*
X14055539Y-14808150D02*
X14036491Y-14779579D01*
X14036491Y-14779579D02*
X14026968Y-14760531D01*
X14026968Y-14760531D02*
X14017444Y-14731960D01*
X14017444Y-14731960D02*
X14007920Y-14684341D01*
X14007920Y-14684341D02*
X14007920Y-14646246D01*
X14007920Y-14646246D02*
X14017444Y-14598627D01*
X14017444Y-14598627D02*
X14026968Y-14570055D01*
X14026968Y-14570055D02*
X14036491Y-14551008D01*
X14036491Y-14551008D02*
X14055539Y-14522436D01*
X14055539Y-14522436D02*
X14065063Y-14512912D01*
X14246015Y-14741484D02*
X14131729Y-14741484D01*
X14188872Y-14741484D02*
X14188872Y-14541484D01*
X14188872Y-14541484D02*
X14169825Y-14570055D01*
X14169825Y-14570055D02*
X14150777Y-14589103D01*
X14150777Y-14589103D02*
X14131729Y-14598627D01*
X14436491Y-14741484D02*
X14322206Y-14741484D01*
X14379348Y-14741484D02*
X14379348Y-14541484D01*
X14379348Y-14541484D02*
X14360301Y-14570055D01*
X14360301Y-14570055D02*
X14341253Y-14589103D01*
X14341253Y-14589103D02*
X14322206Y-14598627D01*
X14674587Y-14741484D02*
X14674587Y-14541484D01*
X14760301Y-14741484D02*
X14760301Y-14636722D01*
X14760301Y-14636722D02*
X14750777Y-14617674D01*
X14750777Y-14617674D02*
X14731730Y-14608150D01*
X14731730Y-14608150D02*
X14703158Y-14608150D01*
X14703158Y-14608150D02*
X14684110Y-14617674D01*
X14684110Y-14617674D02*
X14674587Y-14627198D01*
X14884110Y-14741484D02*
X14865063Y-14731960D01*
X14865063Y-14731960D02*
X14855539Y-14722436D01*
X14855539Y-14722436D02*
X14846015Y-14703388D01*
X14846015Y-14703388D02*
X14846015Y-14646246D01*
X14846015Y-14646246D02*
X14855539Y-14627198D01*
X14855539Y-14627198D02*
X14865063Y-14617674D01*
X14865063Y-14617674D02*
X14884110Y-14608150D01*
X14884110Y-14608150D02*
X14912682Y-14608150D01*
X14912682Y-14608150D02*
X14931730Y-14617674D01*
X14931730Y-14617674D02*
X14941253Y-14627198D01*
X14941253Y-14627198D02*
X14950777Y-14646246D01*
X14950777Y-14646246D02*
X14950777Y-14703388D01*
X14950777Y-14703388D02*
X14941253Y-14722436D01*
X14941253Y-14722436D02*
X14931730Y-14731960D01*
X14931730Y-14731960D02*
X14912682Y-14741484D01*
X14912682Y-14741484D02*
X14884110Y-14741484D01*
X15065063Y-14741484D02*
X15046015Y-14731960D01*
X15046015Y-14731960D02*
X15036491Y-14712912D01*
X15036491Y-14712912D02*
X15036491Y-14541484D01*
X15217444Y-14731960D02*
X15198396Y-14741484D01*
X15198396Y-14741484D02*
X15160301Y-14741484D01*
X15160301Y-14741484D02*
X15141253Y-14731960D01*
X15141253Y-14731960D02*
X15131730Y-14712912D01*
X15131730Y-14712912D02*
X15131730Y-14636722D01*
X15131730Y-14636722D02*
X15141253Y-14617674D01*
X15141253Y-14617674D02*
X15160301Y-14608150D01*
X15160301Y-14608150D02*
X15198396Y-14608150D01*
X15198396Y-14608150D02*
X15217444Y-14617674D01*
X15217444Y-14617674D02*
X15226968Y-14636722D01*
X15226968Y-14636722D02*
X15226968Y-14655769D01*
X15226968Y-14655769D02*
X15131730Y-14674817D01*
X15303158Y-14731960D02*
X15322206Y-14741484D01*
X15322206Y-14741484D02*
X15360301Y-14741484D01*
X15360301Y-14741484D02*
X15379349Y-14731960D01*
X15379349Y-14731960D02*
X15388872Y-14712912D01*
X15388872Y-14712912D02*
X15388872Y-14703388D01*
X15388872Y-14703388D02*
X15379349Y-14684341D01*
X15379349Y-14684341D02*
X15360301Y-14674817D01*
X15360301Y-14674817D02*
X15331730Y-14674817D01*
X15331730Y-14674817D02*
X15312682Y-14665293D01*
X15312682Y-14665293D02*
X15303158Y-14646246D01*
X15303158Y-14646246D02*
X15303158Y-14636722D01*
X15303158Y-14636722D02*
X15312682Y-14617674D01*
X15312682Y-14617674D02*
X15331730Y-14608150D01*
X15331730Y-14608150D02*
X15360301Y-14608150D01*
X15360301Y-14608150D02*
X15379349Y-14617674D01*
X15455539Y-14817674D02*
X15465063Y-14808150D01*
X15465063Y-14808150D02*
X15484111Y-14779579D01*
X15484111Y-14779579D02*
X15493634Y-14760531D01*
X15493634Y-14760531D02*
X15503158Y-14731960D01*
X15503158Y-14731960D02*
X15512682Y-14684341D01*
X15512682Y-14684341D02*
X15512682Y-14646246D01*
X15512682Y-14646246D02*
X15503158Y-14598627D01*
X15503158Y-14598627D02*
X15493634Y-14570055D01*
X15493634Y-14570055D02*
X15484111Y-14551008D01*
X15484111Y-14551008D02*
X15465063Y-14522436D01*
X15465063Y-14522436D02*
X15455539Y-14512912D01*
D12*
X10490000Y-14914000D02*
G75*
G03*
X10450000Y-14914000I-20000J0D01*
G01*
X10450000Y-14914000D02*
G75*
G03*
X10490000Y-14914000I20000J0D01*
G01*
D10*
X10788872Y-14805484D02*
X10807920Y-14805484D01*
X10807920Y-14805484D02*
X10826967Y-14815008D01*
X10826967Y-14815008D02*
X10836491Y-14824531D01*
X10836491Y-14824531D02*
X10846015Y-14843579D01*
X10846015Y-14843579D02*
X10855539Y-14881674D01*
X10855539Y-14881674D02*
X10855539Y-14929293D01*
X10855539Y-14929293D02*
X10846015Y-14967388D01*
X10846015Y-14967388D02*
X10836491Y-14986436D01*
X10836491Y-14986436D02*
X10826967Y-14995960D01*
X10826967Y-14995960D02*
X10807920Y-15005484D01*
X10807920Y-15005484D02*
X10788872Y-15005484D01*
X10788872Y-15005484D02*
X10769824Y-14995960D01*
X10769824Y-14995960D02*
X10760301Y-14986436D01*
X10760301Y-14986436D02*
X10750777Y-14967388D01*
X10750777Y-14967388D02*
X10741253Y-14929293D01*
X10741253Y-14929293D02*
X10741253Y-14881674D01*
X10741253Y-14881674D02*
X10750777Y-14843579D01*
X10750777Y-14843579D02*
X10760301Y-14824531D01*
X10760301Y-14824531D02*
X10769824Y-14815008D01*
X10769824Y-14815008D02*
X10788872Y-14805484D01*
X10941253Y-14986436D02*
X10950777Y-14995960D01*
X10950777Y-14995960D02*
X10941253Y-15005484D01*
X10941253Y-15005484D02*
X10931729Y-14995960D01*
X10931729Y-14995960D02*
X10941253Y-14986436D01*
X10941253Y-14986436D02*
X10941253Y-15005484D01*
X11122205Y-14872150D02*
X11122205Y-15005484D01*
X11074586Y-14795960D02*
X11026967Y-14938817D01*
X11026967Y-14938817D02*
X11150777Y-14938817D01*
X11265062Y-14805484D02*
X11284110Y-14805484D01*
X11284110Y-14805484D02*
X11303158Y-14815008D01*
X11303158Y-14815008D02*
X11312682Y-14824531D01*
X11312682Y-14824531D02*
X11322205Y-14843579D01*
X11322205Y-14843579D02*
X11331729Y-14881674D01*
X11331729Y-14881674D02*
X11331729Y-14929293D01*
X11331729Y-14929293D02*
X11322205Y-14967388D01*
X11322205Y-14967388D02*
X11312682Y-14986436D01*
X11312682Y-14986436D02*
X11303158Y-14995960D01*
X11303158Y-14995960D02*
X11284110Y-15005484D01*
X11284110Y-15005484D02*
X11265062Y-15005484D01*
X11265062Y-15005484D02*
X11246015Y-14995960D01*
X11246015Y-14995960D02*
X11236491Y-14986436D01*
X11236491Y-14986436D02*
X11226967Y-14967388D01*
X11226967Y-14967388D02*
X11217443Y-14929293D01*
X11217443Y-14929293D02*
X11217443Y-14881674D01*
X11217443Y-14881674D02*
X11226967Y-14843579D01*
X11226967Y-14843579D02*
X11236491Y-14824531D01*
X11236491Y-14824531D02*
X11246015Y-14815008D01*
X11246015Y-14815008D02*
X11265062Y-14805484D01*
X11455539Y-14805484D02*
X11474586Y-14805484D01*
X11474586Y-14805484D02*
X11493634Y-14815008D01*
X11493634Y-14815008D02*
X11503158Y-14824531D01*
X11503158Y-14824531D02*
X11512682Y-14843579D01*
X11512682Y-14843579D02*
X11522205Y-14881674D01*
X11522205Y-14881674D02*
X11522205Y-14929293D01*
X11522205Y-14929293D02*
X11512682Y-14967388D01*
X11512682Y-14967388D02*
X11503158Y-14986436D01*
X11503158Y-14986436D02*
X11493634Y-14995960D01*
X11493634Y-14995960D02*
X11474586Y-15005484D01*
X11474586Y-15005484D02*
X11455539Y-15005484D01*
X11455539Y-15005484D02*
X11436491Y-14995960D01*
X11436491Y-14995960D02*
X11426967Y-14986436D01*
X11426967Y-14986436D02*
X11417443Y-14967388D01*
X11417443Y-14967388D02*
X11407920Y-14929293D01*
X11407920Y-14929293D02*
X11407920Y-14881674D01*
X11407920Y-14881674D02*
X11417443Y-14843579D01*
X11417443Y-14843579D02*
X11426967Y-14824531D01*
X11426967Y-14824531D02*
X11436491Y-14815008D01*
X11436491Y-14815008D02*
X11455539Y-14805484D01*
X11607920Y-15005484D02*
X11607920Y-14872150D01*
X11607920Y-14891198D02*
X11617443Y-14881674D01*
X11617443Y-14881674D02*
X11636491Y-14872150D01*
X11636491Y-14872150D02*
X11665063Y-14872150D01*
X11665063Y-14872150D02*
X11684110Y-14881674D01*
X11684110Y-14881674D02*
X11693634Y-14900722D01*
X11693634Y-14900722D02*
X11693634Y-15005484D01*
X11693634Y-14900722D02*
X11703158Y-14881674D01*
X11703158Y-14881674D02*
X11722205Y-14872150D01*
X11722205Y-14872150D02*
X11750777Y-14872150D01*
X11750777Y-14872150D02*
X11769824Y-14881674D01*
X11769824Y-14881674D02*
X11779348Y-14900722D01*
X11779348Y-14900722D02*
X11779348Y-15005484D01*
X11874586Y-15005484D02*
X11874586Y-14872150D01*
X11874586Y-14891198D02*
X11884110Y-14881674D01*
X11884110Y-14881674D02*
X11903158Y-14872150D01*
X11903158Y-14872150D02*
X11931729Y-14872150D01*
X11931729Y-14872150D02*
X11950777Y-14881674D01*
X11950777Y-14881674D02*
X11960301Y-14900722D01*
X11960301Y-14900722D02*
X11960301Y-15005484D01*
X11960301Y-14900722D02*
X11969824Y-14881674D01*
X11969824Y-14881674D02*
X11988872Y-14872150D01*
X11988872Y-14872150D02*
X12017443Y-14872150D01*
X12017443Y-14872150D02*
X12036491Y-14881674D01*
X12036491Y-14881674D02*
X12046015Y-14900722D01*
X12046015Y-14900722D02*
X12046015Y-15005484D01*
X12436491Y-14795960D02*
X12265063Y-15053103D01*
X12693634Y-14805484D02*
X12712682Y-14805484D01*
X12712682Y-14805484D02*
X12731729Y-14815008D01*
X12731729Y-14815008D02*
X12741253Y-14824531D01*
X12741253Y-14824531D02*
X12750777Y-14843579D01*
X12750777Y-14843579D02*
X12760301Y-14881674D01*
X12760301Y-14881674D02*
X12760301Y-14929293D01*
X12760301Y-14929293D02*
X12750777Y-14967388D01*
X12750777Y-14967388D02*
X12741253Y-14986436D01*
X12741253Y-14986436D02*
X12731729Y-14995960D01*
X12731729Y-14995960D02*
X12712682Y-15005484D01*
X12712682Y-15005484D02*
X12693634Y-15005484D01*
X12693634Y-15005484D02*
X12674586Y-14995960D01*
X12674586Y-14995960D02*
X12665063Y-14986436D01*
X12665063Y-14986436D02*
X12655539Y-14967388D01*
X12655539Y-14967388D02*
X12646015Y-14929293D01*
X12646015Y-14929293D02*
X12646015Y-14881674D01*
X12646015Y-14881674D02*
X12655539Y-14843579D01*
X12655539Y-14843579D02*
X12665063Y-14824531D01*
X12665063Y-14824531D02*
X12674586Y-14815008D01*
X12674586Y-14815008D02*
X12693634Y-14805484D01*
X12846015Y-14986436D02*
X12855539Y-14995960D01*
X12855539Y-14995960D02*
X12846015Y-15005484D01*
X12846015Y-15005484D02*
X12836491Y-14995960D01*
X12836491Y-14995960D02*
X12846015Y-14986436D01*
X12846015Y-14986436D02*
X12846015Y-15005484D01*
X12979348Y-14805484D02*
X12998396Y-14805484D01*
X12998396Y-14805484D02*
X13017444Y-14815008D01*
X13017444Y-14815008D02*
X13026967Y-14824531D01*
X13026967Y-14824531D02*
X13036491Y-14843579D01*
X13036491Y-14843579D02*
X13046015Y-14881674D01*
X13046015Y-14881674D02*
X13046015Y-14929293D01*
X13046015Y-14929293D02*
X13036491Y-14967388D01*
X13036491Y-14967388D02*
X13026967Y-14986436D01*
X13026967Y-14986436D02*
X13017444Y-14995960D01*
X13017444Y-14995960D02*
X12998396Y-15005484D01*
X12998396Y-15005484D02*
X12979348Y-15005484D01*
X12979348Y-15005484D02*
X12960301Y-14995960D01*
X12960301Y-14995960D02*
X12950777Y-14986436D01*
X12950777Y-14986436D02*
X12941253Y-14967388D01*
X12941253Y-14967388D02*
X12931729Y-14929293D01*
X12931729Y-14929293D02*
X12931729Y-14881674D01*
X12931729Y-14881674D02*
X12941253Y-14843579D01*
X12941253Y-14843579D02*
X12950777Y-14824531D01*
X12950777Y-14824531D02*
X12960301Y-14815008D01*
X12960301Y-14815008D02*
X12979348Y-14805484D01*
X13236491Y-15005484D02*
X13122206Y-15005484D01*
X13179348Y-15005484D02*
X13179348Y-14805484D01*
X13179348Y-14805484D02*
X13160301Y-14834055D01*
X13160301Y-14834055D02*
X13141253Y-14853103D01*
X13141253Y-14853103D02*
X13122206Y-14862627D01*
X13417444Y-14805484D02*
X13322206Y-14805484D01*
X13322206Y-14805484D02*
X13312682Y-14900722D01*
X13312682Y-14900722D02*
X13322206Y-14891198D01*
X13322206Y-14891198D02*
X13341253Y-14881674D01*
X13341253Y-14881674D02*
X13388872Y-14881674D01*
X13388872Y-14881674D02*
X13407920Y-14891198D01*
X13407920Y-14891198D02*
X13417444Y-14900722D01*
X13417444Y-14900722D02*
X13426967Y-14919769D01*
X13426967Y-14919769D02*
X13426967Y-14967388D01*
X13426967Y-14967388D02*
X13417444Y-14986436D01*
X13417444Y-14986436D02*
X13407920Y-14995960D01*
X13407920Y-14995960D02*
X13388872Y-15005484D01*
X13388872Y-15005484D02*
X13341253Y-15005484D01*
X13341253Y-15005484D02*
X13322206Y-14995960D01*
X13322206Y-14995960D02*
X13312682Y-14986436D01*
X13493634Y-14805484D02*
X13626967Y-14805484D01*
X13626967Y-14805484D02*
X13541253Y-15005484D01*
X13693634Y-14805484D02*
X13693634Y-14843579D01*
X13769825Y-14805484D02*
X13769825Y-14843579D01*
X14065063Y-15081674D02*
X14055539Y-15072150D01*
X14055539Y-15072150D02*
X14036491Y-15043579D01*
X14036491Y-15043579D02*
X14026968Y-15024531D01*
X14026968Y-15024531D02*
X14017444Y-14995960D01*
X14017444Y-14995960D02*
X14007920Y-14948341D01*
X14007920Y-14948341D02*
X14007920Y-14910246D01*
X14007920Y-14910246D02*
X14017444Y-14862627D01*
X14017444Y-14862627D02*
X14026968Y-14834055D01*
X14026968Y-14834055D02*
X14036491Y-14815008D01*
X14036491Y-14815008D02*
X14055539Y-14786436D01*
X14055539Y-14786436D02*
X14065063Y-14776912D01*
X14131729Y-14824531D02*
X14141253Y-14815008D01*
X14141253Y-14815008D02*
X14160301Y-14805484D01*
X14160301Y-14805484D02*
X14207920Y-14805484D01*
X14207920Y-14805484D02*
X14226968Y-14815008D01*
X14226968Y-14815008D02*
X14236491Y-14824531D01*
X14236491Y-14824531D02*
X14246015Y-14843579D01*
X14246015Y-14843579D02*
X14246015Y-14862627D01*
X14246015Y-14862627D02*
X14236491Y-14891198D01*
X14236491Y-14891198D02*
X14122206Y-15005484D01*
X14122206Y-15005484D02*
X14246015Y-15005484D01*
X14484110Y-15005484D02*
X14484110Y-14805484D01*
X14569825Y-15005484D02*
X14569825Y-14900722D01*
X14569825Y-14900722D02*
X14560301Y-14881674D01*
X14560301Y-14881674D02*
X14541253Y-14872150D01*
X14541253Y-14872150D02*
X14512682Y-14872150D01*
X14512682Y-14872150D02*
X14493634Y-14881674D01*
X14493634Y-14881674D02*
X14484110Y-14891198D01*
X14693634Y-15005484D02*
X14674587Y-14995960D01*
X14674587Y-14995960D02*
X14665063Y-14986436D01*
X14665063Y-14986436D02*
X14655539Y-14967388D01*
X14655539Y-14967388D02*
X14655539Y-14910246D01*
X14655539Y-14910246D02*
X14665063Y-14891198D01*
X14665063Y-14891198D02*
X14674587Y-14881674D01*
X14674587Y-14881674D02*
X14693634Y-14872150D01*
X14693634Y-14872150D02*
X14722206Y-14872150D01*
X14722206Y-14872150D02*
X14741253Y-14881674D01*
X14741253Y-14881674D02*
X14750777Y-14891198D01*
X14750777Y-14891198D02*
X14760301Y-14910246D01*
X14760301Y-14910246D02*
X14760301Y-14967388D01*
X14760301Y-14967388D02*
X14750777Y-14986436D01*
X14750777Y-14986436D02*
X14741253Y-14995960D01*
X14741253Y-14995960D02*
X14722206Y-15005484D01*
X14722206Y-15005484D02*
X14693634Y-15005484D01*
X14874587Y-15005484D02*
X14855539Y-14995960D01*
X14855539Y-14995960D02*
X14846015Y-14976912D01*
X14846015Y-14976912D02*
X14846015Y-14805484D01*
X15026968Y-14995960D02*
X15007920Y-15005484D01*
X15007920Y-15005484D02*
X14969825Y-15005484D01*
X14969825Y-15005484D02*
X14950777Y-14995960D01*
X14950777Y-14995960D02*
X14941253Y-14976912D01*
X14941253Y-14976912D02*
X14941253Y-14900722D01*
X14941253Y-14900722D02*
X14950777Y-14881674D01*
X14950777Y-14881674D02*
X14969825Y-14872150D01*
X14969825Y-14872150D02*
X15007920Y-14872150D01*
X15007920Y-14872150D02*
X15026968Y-14881674D01*
X15026968Y-14881674D02*
X15036491Y-14900722D01*
X15036491Y-14900722D02*
X15036491Y-14919769D01*
X15036491Y-14919769D02*
X14941253Y-14938817D01*
X15112682Y-14995960D02*
X15131730Y-15005484D01*
X15131730Y-15005484D02*
X15169825Y-15005484D01*
X15169825Y-15005484D02*
X15188872Y-14995960D01*
X15188872Y-14995960D02*
X15198396Y-14976912D01*
X15198396Y-14976912D02*
X15198396Y-14967388D01*
X15198396Y-14967388D02*
X15188872Y-14948341D01*
X15188872Y-14948341D02*
X15169825Y-14938817D01*
X15169825Y-14938817D02*
X15141253Y-14938817D01*
X15141253Y-14938817D02*
X15122206Y-14929293D01*
X15122206Y-14929293D02*
X15112682Y-14910246D01*
X15112682Y-14910246D02*
X15112682Y-14900722D01*
X15112682Y-14900722D02*
X15122206Y-14881674D01*
X15122206Y-14881674D02*
X15141253Y-14872150D01*
X15141253Y-14872150D02*
X15169825Y-14872150D01*
X15169825Y-14872150D02*
X15188872Y-14881674D01*
X15265063Y-15081674D02*
X15274587Y-15072150D01*
X15274587Y-15072150D02*
X15293634Y-15043579D01*
X15293634Y-15043579D02*
X15303158Y-15024531D01*
X15303158Y-15024531D02*
X15312682Y-14995960D01*
X15312682Y-14995960D02*
X15322206Y-14948341D01*
X15322206Y-14948341D02*
X15322206Y-14910246D01*
X15322206Y-14910246D02*
X15312682Y-14862627D01*
X15312682Y-14862627D02*
X15303158Y-14834055D01*
X15303158Y-14834055D02*
X15293634Y-14815008D01*
X15293634Y-14815008D02*
X15274587Y-14786436D01*
X15274587Y-14786436D02*
X15265063Y-14776912D01*
D12*
X10457500Y-15145500D02*
X10457500Y-15210500D01*
X10425000Y-15178000D02*
X10490000Y-15178000D01*
D10*
X10788872Y-15069484D02*
X10807920Y-15069484D01*
X10807920Y-15069484D02*
X10826967Y-15079008D01*
X10826967Y-15079008D02*
X10836491Y-15088531D01*
X10836491Y-15088531D02*
X10846015Y-15107579D01*
X10846015Y-15107579D02*
X10855539Y-15145674D01*
X10855539Y-15145674D02*
X10855539Y-15193293D01*
X10855539Y-15193293D02*
X10846015Y-15231388D01*
X10846015Y-15231388D02*
X10836491Y-15250436D01*
X10836491Y-15250436D02*
X10826967Y-15259960D01*
X10826967Y-15259960D02*
X10807920Y-15269484D01*
X10807920Y-15269484D02*
X10788872Y-15269484D01*
X10788872Y-15269484D02*
X10769824Y-15259960D01*
X10769824Y-15259960D02*
X10760301Y-15250436D01*
X10760301Y-15250436D02*
X10750777Y-15231388D01*
X10750777Y-15231388D02*
X10741253Y-15193293D01*
X10741253Y-15193293D02*
X10741253Y-15145674D01*
X10741253Y-15145674D02*
X10750777Y-15107579D01*
X10750777Y-15107579D02*
X10760301Y-15088531D01*
X10760301Y-15088531D02*
X10769824Y-15079008D01*
X10769824Y-15079008D02*
X10788872Y-15069484D01*
X10941253Y-15250436D02*
X10950777Y-15259960D01*
X10950777Y-15259960D02*
X10941253Y-15269484D01*
X10941253Y-15269484D02*
X10931729Y-15259960D01*
X10931729Y-15259960D02*
X10941253Y-15250436D01*
X10941253Y-15250436D02*
X10941253Y-15269484D01*
X11122205Y-15069484D02*
X11084110Y-15069484D01*
X11084110Y-15069484D02*
X11065063Y-15079008D01*
X11065063Y-15079008D02*
X11055539Y-15088531D01*
X11055539Y-15088531D02*
X11036491Y-15117103D01*
X11036491Y-15117103D02*
X11026967Y-15155198D01*
X11026967Y-15155198D02*
X11026967Y-15231388D01*
X11026967Y-15231388D02*
X11036491Y-15250436D01*
X11036491Y-15250436D02*
X11046015Y-15259960D01*
X11046015Y-15259960D02*
X11065063Y-15269484D01*
X11065063Y-15269484D02*
X11103158Y-15269484D01*
X11103158Y-15269484D02*
X11122205Y-15259960D01*
X11122205Y-15259960D02*
X11131729Y-15250436D01*
X11131729Y-15250436D02*
X11141253Y-15231388D01*
X11141253Y-15231388D02*
X11141253Y-15183769D01*
X11141253Y-15183769D02*
X11131729Y-15164722D01*
X11131729Y-15164722D02*
X11122205Y-15155198D01*
X11122205Y-15155198D02*
X11103158Y-15145674D01*
X11103158Y-15145674D02*
X11065063Y-15145674D01*
X11065063Y-15145674D02*
X11046015Y-15155198D01*
X11046015Y-15155198D02*
X11036491Y-15164722D01*
X11036491Y-15164722D02*
X11026967Y-15183769D01*
X11322205Y-15069484D02*
X11226967Y-15069484D01*
X11226967Y-15069484D02*
X11217443Y-15164722D01*
X11217443Y-15164722D02*
X11226967Y-15155198D01*
X11226967Y-15155198D02*
X11246015Y-15145674D01*
X11246015Y-15145674D02*
X11293634Y-15145674D01*
X11293634Y-15145674D02*
X11312682Y-15155198D01*
X11312682Y-15155198D02*
X11322205Y-15164722D01*
X11322205Y-15164722D02*
X11331729Y-15183769D01*
X11331729Y-15183769D02*
X11331729Y-15231388D01*
X11331729Y-15231388D02*
X11322205Y-15250436D01*
X11322205Y-15250436D02*
X11312682Y-15259960D01*
X11312682Y-15259960D02*
X11293634Y-15269484D01*
X11293634Y-15269484D02*
X11246015Y-15269484D01*
X11246015Y-15269484D02*
X11226967Y-15259960D01*
X11226967Y-15259960D02*
X11217443Y-15250436D01*
X11455539Y-15069484D02*
X11474586Y-15069484D01*
X11474586Y-15069484D02*
X11493634Y-15079008D01*
X11493634Y-15079008D02*
X11503158Y-15088531D01*
X11503158Y-15088531D02*
X11512682Y-15107579D01*
X11512682Y-15107579D02*
X11522205Y-15145674D01*
X11522205Y-15145674D02*
X11522205Y-15193293D01*
X11522205Y-15193293D02*
X11512682Y-15231388D01*
X11512682Y-15231388D02*
X11503158Y-15250436D01*
X11503158Y-15250436D02*
X11493634Y-15259960D01*
X11493634Y-15259960D02*
X11474586Y-15269484D01*
X11474586Y-15269484D02*
X11455539Y-15269484D01*
X11455539Y-15269484D02*
X11436491Y-15259960D01*
X11436491Y-15259960D02*
X11426967Y-15250436D01*
X11426967Y-15250436D02*
X11417443Y-15231388D01*
X11417443Y-15231388D02*
X11407920Y-15193293D01*
X11407920Y-15193293D02*
X11407920Y-15145674D01*
X11407920Y-15145674D02*
X11417443Y-15107579D01*
X11417443Y-15107579D02*
X11426967Y-15088531D01*
X11426967Y-15088531D02*
X11436491Y-15079008D01*
X11436491Y-15079008D02*
X11455539Y-15069484D01*
X11607920Y-15269484D02*
X11607920Y-15136150D01*
X11607920Y-15155198D02*
X11617443Y-15145674D01*
X11617443Y-15145674D02*
X11636491Y-15136150D01*
X11636491Y-15136150D02*
X11665063Y-15136150D01*
X11665063Y-15136150D02*
X11684110Y-15145674D01*
X11684110Y-15145674D02*
X11693634Y-15164722D01*
X11693634Y-15164722D02*
X11693634Y-15269484D01*
X11693634Y-15164722D02*
X11703158Y-15145674D01*
X11703158Y-15145674D02*
X11722205Y-15136150D01*
X11722205Y-15136150D02*
X11750777Y-15136150D01*
X11750777Y-15136150D02*
X11769824Y-15145674D01*
X11769824Y-15145674D02*
X11779348Y-15164722D01*
X11779348Y-15164722D02*
X11779348Y-15269484D01*
X11874586Y-15269484D02*
X11874586Y-15136150D01*
X11874586Y-15155198D02*
X11884110Y-15145674D01*
X11884110Y-15145674D02*
X11903158Y-15136150D01*
X11903158Y-15136150D02*
X11931729Y-15136150D01*
X11931729Y-15136150D02*
X11950777Y-15145674D01*
X11950777Y-15145674D02*
X11960301Y-15164722D01*
X11960301Y-15164722D02*
X11960301Y-15269484D01*
X11960301Y-15164722D02*
X11969824Y-15145674D01*
X11969824Y-15145674D02*
X11988872Y-15136150D01*
X11988872Y-15136150D02*
X12017443Y-15136150D01*
X12017443Y-15136150D02*
X12036491Y-15145674D01*
X12036491Y-15145674D02*
X12046015Y-15164722D01*
X12046015Y-15164722D02*
X12046015Y-15269484D01*
X12436491Y-15059960D02*
X12265063Y-15317103D01*
X12693634Y-15069484D02*
X12712682Y-15069484D01*
X12712682Y-15069484D02*
X12731729Y-15079008D01*
X12731729Y-15079008D02*
X12741253Y-15088531D01*
X12741253Y-15088531D02*
X12750777Y-15107579D01*
X12750777Y-15107579D02*
X12760301Y-15145674D01*
X12760301Y-15145674D02*
X12760301Y-15193293D01*
X12760301Y-15193293D02*
X12750777Y-15231388D01*
X12750777Y-15231388D02*
X12741253Y-15250436D01*
X12741253Y-15250436D02*
X12731729Y-15259960D01*
X12731729Y-15259960D02*
X12712682Y-15269484D01*
X12712682Y-15269484D02*
X12693634Y-15269484D01*
X12693634Y-15269484D02*
X12674586Y-15259960D01*
X12674586Y-15259960D02*
X12665063Y-15250436D01*
X12665063Y-15250436D02*
X12655539Y-15231388D01*
X12655539Y-15231388D02*
X12646015Y-15193293D01*
X12646015Y-15193293D02*
X12646015Y-15145674D01*
X12646015Y-15145674D02*
X12655539Y-15107579D01*
X12655539Y-15107579D02*
X12665063Y-15088531D01*
X12665063Y-15088531D02*
X12674586Y-15079008D01*
X12674586Y-15079008D02*
X12693634Y-15069484D01*
X12846015Y-15250436D02*
X12855539Y-15259960D01*
X12855539Y-15259960D02*
X12846015Y-15269484D01*
X12846015Y-15269484D02*
X12836491Y-15259960D01*
X12836491Y-15259960D02*
X12846015Y-15250436D01*
X12846015Y-15250436D02*
X12846015Y-15269484D01*
X12979348Y-15069484D02*
X12998396Y-15069484D01*
X12998396Y-15069484D02*
X13017444Y-15079008D01*
X13017444Y-15079008D02*
X13026967Y-15088531D01*
X13026967Y-15088531D02*
X13036491Y-15107579D01*
X13036491Y-15107579D02*
X13046015Y-15145674D01*
X13046015Y-15145674D02*
X13046015Y-15193293D01*
X13046015Y-15193293D02*
X13036491Y-15231388D01*
X13036491Y-15231388D02*
X13026967Y-15250436D01*
X13026967Y-15250436D02*
X13017444Y-15259960D01*
X13017444Y-15259960D02*
X12998396Y-15269484D01*
X12998396Y-15269484D02*
X12979348Y-15269484D01*
X12979348Y-15269484D02*
X12960301Y-15259960D01*
X12960301Y-15259960D02*
X12950777Y-15250436D01*
X12950777Y-15250436D02*
X12941253Y-15231388D01*
X12941253Y-15231388D02*
X12931729Y-15193293D01*
X12931729Y-15193293D02*
X12931729Y-15145674D01*
X12931729Y-15145674D02*
X12941253Y-15107579D01*
X12941253Y-15107579D02*
X12950777Y-15088531D01*
X12950777Y-15088531D02*
X12960301Y-15079008D01*
X12960301Y-15079008D02*
X12979348Y-15069484D01*
X13122206Y-15088531D02*
X13131729Y-15079008D01*
X13131729Y-15079008D02*
X13150777Y-15069484D01*
X13150777Y-15069484D02*
X13198396Y-15069484D01*
X13198396Y-15069484D02*
X13217444Y-15079008D01*
X13217444Y-15079008D02*
X13226967Y-15088531D01*
X13226967Y-15088531D02*
X13236491Y-15107579D01*
X13236491Y-15107579D02*
X13236491Y-15126627D01*
X13236491Y-15126627D02*
X13226967Y-15155198D01*
X13226967Y-15155198D02*
X13112682Y-15269484D01*
X13112682Y-15269484D02*
X13236491Y-15269484D01*
X13417444Y-15069484D02*
X13322206Y-15069484D01*
X13322206Y-15069484D02*
X13312682Y-15164722D01*
X13312682Y-15164722D02*
X13322206Y-15155198D01*
X13322206Y-15155198D02*
X13341253Y-15145674D01*
X13341253Y-15145674D02*
X13388872Y-15145674D01*
X13388872Y-15145674D02*
X13407920Y-15155198D01*
X13407920Y-15155198D02*
X13417444Y-15164722D01*
X13417444Y-15164722D02*
X13426967Y-15183769D01*
X13426967Y-15183769D02*
X13426967Y-15231388D01*
X13426967Y-15231388D02*
X13417444Y-15250436D01*
X13417444Y-15250436D02*
X13407920Y-15259960D01*
X13407920Y-15259960D02*
X13388872Y-15269484D01*
X13388872Y-15269484D02*
X13341253Y-15269484D01*
X13341253Y-15269484D02*
X13322206Y-15259960D01*
X13322206Y-15259960D02*
X13312682Y-15250436D01*
X13598396Y-15069484D02*
X13560301Y-15069484D01*
X13560301Y-15069484D02*
X13541253Y-15079008D01*
X13541253Y-15079008D02*
X13531729Y-15088531D01*
X13531729Y-15088531D02*
X13512682Y-15117103D01*
X13512682Y-15117103D02*
X13503158Y-15155198D01*
X13503158Y-15155198D02*
X13503158Y-15231388D01*
X13503158Y-15231388D02*
X13512682Y-15250436D01*
X13512682Y-15250436D02*
X13522206Y-15259960D01*
X13522206Y-15259960D02*
X13541253Y-15269484D01*
X13541253Y-15269484D02*
X13579348Y-15269484D01*
X13579348Y-15269484D02*
X13598396Y-15259960D01*
X13598396Y-15259960D02*
X13607920Y-15250436D01*
X13607920Y-15250436D02*
X13617444Y-15231388D01*
X13617444Y-15231388D02*
X13617444Y-15183769D01*
X13617444Y-15183769D02*
X13607920Y-15164722D01*
X13607920Y-15164722D02*
X13598396Y-15155198D01*
X13598396Y-15155198D02*
X13579348Y-15145674D01*
X13579348Y-15145674D02*
X13541253Y-15145674D01*
X13541253Y-15145674D02*
X13522206Y-15155198D01*
X13522206Y-15155198D02*
X13512682Y-15164722D01*
X13512682Y-15164722D02*
X13503158Y-15183769D01*
X13693634Y-15069484D02*
X13693634Y-15107579D01*
X13769825Y-15069484D02*
X13769825Y-15107579D01*
X14065063Y-15345674D02*
X14055539Y-15336150D01*
X14055539Y-15336150D02*
X14036491Y-15307579D01*
X14036491Y-15307579D02*
X14026968Y-15288531D01*
X14026968Y-15288531D02*
X14017444Y-15259960D01*
X14017444Y-15259960D02*
X14007920Y-15212341D01*
X14007920Y-15212341D02*
X14007920Y-15174246D01*
X14007920Y-15174246D02*
X14017444Y-15126627D01*
X14017444Y-15126627D02*
X14026968Y-15098055D01*
X14026968Y-15098055D02*
X14036491Y-15079008D01*
X14036491Y-15079008D02*
X14055539Y-15050436D01*
X14055539Y-15050436D02*
X14065063Y-15040912D01*
X14246015Y-15269484D02*
X14131729Y-15269484D01*
X14188872Y-15269484D02*
X14188872Y-15069484D01*
X14188872Y-15069484D02*
X14169825Y-15098055D01*
X14169825Y-15098055D02*
X14150777Y-15117103D01*
X14150777Y-15117103D02*
X14131729Y-15126627D01*
X14369825Y-15069484D02*
X14388872Y-15069484D01*
X14388872Y-15069484D02*
X14407920Y-15079008D01*
X14407920Y-15079008D02*
X14417444Y-15088531D01*
X14417444Y-15088531D02*
X14426968Y-15107579D01*
X14426968Y-15107579D02*
X14436491Y-15145674D01*
X14436491Y-15145674D02*
X14436491Y-15193293D01*
X14436491Y-15193293D02*
X14426968Y-15231388D01*
X14426968Y-15231388D02*
X14417444Y-15250436D01*
X14417444Y-15250436D02*
X14407920Y-15259960D01*
X14407920Y-15259960D02*
X14388872Y-15269484D01*
X14388872Y-15269484D02*
X14369825Y-15269484D01*
X14369825Y-15269484D02*
X14350777Y-15259960D01*
X14350777Y-15259960D02*
X14341253Y-15250436D01*
X14341253Y-15250436D02*
X14331729Y-15231388D01*
X14331729Y-15231388D02*
X14322206Y-15193293D01*
X14322206Y-15193293D02*
X14322206Y-15145674D01*
X14322206Y-15145674D02*
X14331729Y-15107579D01*
X14331729Y-15107579D02*
X14341253Y-15088531D01*
X14341253Y-15088531D02*
X14350777Y-15079008D01*
X14350777Y-15079008D02*
X14369825Y-15069484D01*
X14674587Y-15269484D02*
X14674587Y-15069484D01*
X14760301Y-15269484D02*
X14760301Y-15164722D01*
X14760301Y-15164722D02*
X14750777Y-15145674D01*
X14750777Y-15145674D02*
X14731730Y-15136150D01*
X14731730Y-15136150D02*
X14703158Y-15136150D01*
X14703158Y-15136150D02*
X14684110Y-15145674D01*
X14684110Y-15145674D02*
X14674587Y-15155198D01*
X14884110Y-15269484D02*
X14865063Y-15259960D01*
X14865063Y-15259960D02*
X14855539Y-15250436D01*
X14855539Y-15250436D02*
X14846015Y-15231388D01*
X14846015Y-15231388D02*
X14846015Y-15174246D01*
X14846015Y-15174246D02*
X14855539Y-15155198D01*
X14855539Y-15155198D02*
X14865063Y-15145674D01*
X14865063Y-15145674D02*
X14884110Y-15136150D01*
X14884110Y-15136150D02*
X14912682Y-15136150D01*
X14912682Y-15136150D02*
X14931730Y-15145674D01*
X14931730Y-15145674D02*
X14941253Y-15155198D01*
X14941253Y-15155198D02*
X14950777Y-15174246D01*
X14950777Y-15174246D02*
X14950777Y-15231388D01*
X14950777Y-15231388D02*
X14941253Y-15250436D01*
X14941253Y-15250436D02*
X14931730Y-15259960D01*
X14931730Y-15259960D02*
X14912682Y-15269484D01*
X14912682Y-15269484D02*
X14884110Y-15269484D01*
X15065063Y-15269484D02*
X15046015Y-15259960D01*
X15046015Y-15259960D02*
X15036491Y-15240912D01*
X15036491Y-15240912D02*
X15036491Y-15069484D01*
X15217444Y-15259960D02*
X15198396Y-15269484D01*
X15198396Y-15269484D02*
X15160301Y-15269484D01*
X15160301Y-15269484D02*
X15141253Y-15259960D01*
X15141253Y-15259960D02*
X15131730Y-15240912D01*
X15131730Y-15240912D02*
X15131730Y-15164722D01*
X15131730Y-15164722D02*
X15141253Y-15145674D01*
X15141253Y-15145674D02*
X15160301Y-15136150D01*
X15160301Y-15136150D02*
X15198396Y-15136150D01*
X15198396Y-15136150D02*
X15217444Y-15145674D01*
X15217444Y-15145674D02*
X15226968Y-15164722D01*
X15226968Y-15164722D02*
X15226968Y-15183769D01*
X15226968Y-15183769D02*
X15131730Y-15202817D01*
X15303158Y-15259960D02*
X15322206Y-15269484D01*
X15322206Y-15269484D02*
X15360301Y-15269484D01*
X15360301Y-15269484D02*
X15379349Y-15259960D01*
X15379349Y-15259960D02*
X15388872Y-15240912D01*
X15388872Y-15240912D02*
X15388872Y-15231388D01*
X15388872Y-15231388D02*
X15379349Y-15212341D01*
X15379349Y-15212341D02*
X15360301Y-15202817D01*
X15360301Y-15202817D02*
X15331730Y-15202817D01*
X15331730Y-15202817D02*
X15312682Y-15193293D01*
X15312682Y-15193293D02*
X15303158Y-15174246D01*
X15303158Y-15174246D02*
X15303158Y-15164722D01*
X15303158Y-15164722D02*
X15312682Y-15145674D01*
X15312682Y-15145674D02*
X15331730Y-15136150D01*
X15331730Y-15136150D02*
X15360301Y-15136150D01*
X15360301Y-15136150D02*
X15379349Y-15145674D01*
X15455539Y-15345674D02*
X15465063Y-15336150D01*
X15465063Y-15336150D02*
X15484111Y-15307579D01*
X15484111Y-15307579D02*
X15493634Y-15288531D01*
X15493634Y-15288531D02*
X15503158Y-15259960D01*
X15503158Y-15259960D02*
X15512682Y-15212341D01*
X15512682Y-15212341D02*
X15512682Y-15174246D01*
X15512682Y-15174246D02*
X15503158Y-15126627D01*
X15503158Y-15126627D02*
X15493634Y-15098055D01*
X15493634Y-15098055D02*
X15484111Y-15079008D01*
X15484111Y-15079008D02*
X15465063Y-15050436D01*
X15465063Y-15050436D02*
X15455539Y-15040912D01*
D12*
X10475356Y-15477356D02*
X10475356Y-15406644D01*
X10404644Y-15406644D01*
X10404644Y-15477356D01*
X10475356Y-15477356D01*
D10*
X10855539Y-15533484D02*
X10741253Y-15533484D01*
X10798396Y-15533484D02*
X10798396Y-15333484D01*
X10798396Y-15333484D02*
X10779348Y-15362055D01*
X10779348Y-15362055D02*
X10760301Y-15381103D01*
X10760301Y-15381103D02*
X10741253Y-15390627D01*
X10941253Y-15514436D02*
X10950777Y-15523960D01*
X10950777Y-15523960D02*
X10941253Y-15533484D01*
X10941253Y-15533484D02*
X10931729Y-15523960D01*
X10931729Y-15523960D02*
X10941253Y-15514436D01*
X10941253Y-15514436D02*
X10941253Y-15533484D01*
X11074586Y-15333484D02*
X11093634Y-15333484D01*
X11093634Y-15333484D02*
X11112682Y-15343008D01*
X11112682Y-15343008D02*
X11122205Y-15352531D01*
X11122205Y-15352531D02*
X11131729Y-15371579D01*
X11131729Y-15371579D02*
X11141253Y-15409674D01*
X11141253Y-15409674D02*
X11141253Y-15457293D01*
X11141253Y-15457293D02*
X11131729Y-15495388D01*
X11131729Y-15495388D02*
X11122205Y-15514436D01*
X11122205Y-15514436D02*
X11112682Y-15523960D01*
X11112682Y-15523960D02*
X11093634Y-15533484D01*
X11093634Y-15533484D02*
X11074586Y-15533484D01*
X11074586Y-15533484D02*
X11055539Y-15523960D01*
X11055539Y-15523960D02*
X11046015Y-15514436D01*
X11046015Y-15514436D02*
X11036491Y-15495388D01*
X11036491Y-15495388D02*
X11026967Y-15457293D01*
X11026967Y-15457293D02*
X11026967Y-15409674D01*
X11026967Y-15409674D02*
X11036491Y-15371579D01*
X11036491Y-15371579D02*
X11046015Y-15352531D01*
X11046015Y-15352531D02*
X11055539Y-15343008D01*
X11055539Y-15343008D02*
X11074586Y-15333484D01*
X11265062Y-15333484D02*
X11284110Y-15333484D01*
X11284110Y-15333484D02*
X11303158Y-15343008D01*
X11303158Y-15343008D02*
X11312682Y-15352531D01*
X11312682Y-15352531D02*
X11322205Y-15371579D01*
X11322205Y-15371579D02*
X11331729Y-15409674D01*
X11331729Y-15409674D02*
X11331729Y-15457293D01*
X11331729Y-15457293D02*
X11322205Y-15495388D01*
X11322205Y-15495388D02*
X11312682Y-15514436D01*
X11312682Y-15514436D02*
X11303158Y-15523960D01*
X11303158Y-15523960D02*
X11284110Y-15533484D01*
X11284110Y-15533484D02*
X11265062Y-15533484D01*
X11265062Y-15533484D02*
X11246015Y-15523960D01*
X11246015Y-15523960D02*
X11236491Y-15514436D01*
X11236491Y-15514436D02*
X11226967Y-15495388D01*
X11226967Y-15495388D02*
X11217443Y-15457293D01*
X11217443Y-15457293D02*
X11217443Y-15409674D01*
X11217443Y-15409674D02*
X11226967Y-15371579D01*
X11226967Y-15371579D02*
X11236491Y-15352531D01*
X11236491Y-15352531D02*
X11246015Y-15343008D01*
X11246015Y-15343008D02*
X11265062Y-15333484D01*
X11455539Y-15333484D02*
X11474586Y-15333484D01*
X11474586Y-15333484D02*
X11493634Y-15343008D01*
X11493634Y-15343008D02*
X11503158Y-15352531D01*
X11503158Y-15352531D02*
X11512682Y-15371579D01*
X11512682Y-15371579D02*
X11522205Y-15409674D01*
X11522205Y-15409674D02*
X11522205Y-15457293D01*
X11522205Y-15457293D02*
X11512682Y-15495388D01*
X11512682Y-15495388D02*
X11503158Y-15514436D01*
X11503158Y-15514436D02*
X11493634Y-15523960D01*
X11493634Y-15523960D02*
X11474586Y-15533484D01*
X11474586Y-15533484D02*
X11455539Y-15533484D01*
X11455539Y-15533484D02*
X11436491Y-15523960D01*
X11436491Y-15523960D02*
X11426967Y-15514436D01*
X11426967Y-15514436D02*
X11417443Y-15495388D01*
X11417443Y-15495388D02*
X11407920Y-15457293D01*
X11407920Y-15457293D02*
X11407920Y-15409674D01*
X11407920Y-15409674D02*
X11417443Y-15371579D01*
X11417443Y-15371579D02*
X11426967Y-15352531D01*
X11426967Y-15352531D02*
X11436491Y-15343008D01*
X11436491Y-15343008D02*
X11455539Y-15333484D01*
X11607920Y-15533484D02*
X11607920Y-15400150D01*
X11607920Y-15419198D02*
X11617443Y-15409674D01*
X11617443Y-15409674D02*
X11636491Y-15400150D01*
X11636491Y-15400150D02*
X11665063Y-15400150D01*
X11665063Y-15400150D02*
X11684110Y-15409674D01*
X11684110Y-15409674D02*
X11693634Y-15428722D01*
X11693634Y-15428722D02*
X11693634Y-15533484D01*
X11693634Y-15428722D02*
X11703158Y-15409674D01*
X11703158Y-15409674D02*
X11722205Y-15400150D01*
X11722205Y-15400150D02*
X11750777Y-15400150D01*
X11750777Y-15400150D02*
X11769824Y-15409674D01*
X11769824Y-15409674D02*
X11779348Y-15428722D01*
X11779348Y-15428722D02*
X11779348Y-15533484D01*
X11874586Y-15533484D02*
X11874586Y-15400150D01*
X11874586Y-15419198D02*
X11884110Y-15409674D01*
X11884110Y-15409674D02*
X11903158Y-15400150D01*
X11903158Y-15400150D02*
X11931729Y-15400150D01*
X11931729Y-15400150D02*
X11950777Y-15409674D01*
X11950777Y-15409674D02*
X11960301Y-15428722D01*
X11960301Y-15428722D02*
X11960301Y-15533484D01*
X11960301Y-15428722D02*
X11969824Y-15409674D01*
X11969824Y-15409674D02*
X11988872Y-15400150D01*
X11988872Y-15400150D02*
X12017443Y-15400150D01*
X12017443Y-15400150D02*
X12036491Y-15409674D01*
X12036491Y-15409674D02*
X12046015Y-15428722D01*
X12046015Y-15428722D02*
X12046015Y-15533484D01*
X12436491Y-15323960D02*
X12265063Y-15581103D01*
X12693634Y-15333484D02*
X12712682Y-15333484D01*
X12712682Y-15333484D02*
X12731729Y-15343008D01*
X12731729Y-15343008D02*
X12741253Y-15352531D01*
X12741253Y-15352531D02*
X12750777Y-15371579D01*
X12750777Y-15371579D02*
X12760301Y-15409674D01*
X12760301Y-15409674D02*
X12760301Y-15457293D01*
X12760301Y-15457293D02*
X12750777Y-15495388D01*
X12750777Y-15495388D02*
X12741253Y-15514436D01*
X12741253Y-15514436D02*
X12731729Y-15523960D01*
X12731729Y-15523960D02*
X12712682Y-15533484D01*
X12712682Y-15533484D02*
X12693634Y-15533484D01*
X12693634Y-15533484D02*
X12674586Y-15523960D01*
X12674586Y-15523960D02*
X12665063Y-15514436D01*
X12665063Y-15514436D02*
X12655539Y-15495388D01*
X12655539Y-15495388D02*
X12646015Y-15457293D01*
X12646015Y-15457293D02*
X12646015Y-15409674D01*
X12646015Y-15409674D02*
X12655539Y-15371579D01*
X12655539Y-15371579D02*
X12665063Y-15352531D01*
X12665063Y-15352531D02*
X12674586Y-15343008D01*
X12674586Y-15343008D02*
X12693634Y-15333484D01*
X12846015Y-15514436D02*
X12855539Y-15523960D01*
X12855539Y-15523960D02*
X12846015Y-15533484D01*
X12846015Y-15533484D02*
X12836491Y-15523960D01*
X12836491Y-15523960D02*
X12846015Y-15514436D01*
X12846015Y-15514436D02*
X12846015Y-15533484D01*
X12979348Y-15333484D02*
X12998396Y-15333484D01*
X12998396Y-15333484D02*
X13017444Y-15343008D01*
X13017444Y-15343008D02*
X13026967Y-15352531D01*
X13026967Y-15352531D02*
X13036491Y-15371579D01*
X13036491Y-15371579D02*
X13046015Y-15409674D01*
X13046015Y-15409674D02*
X13046015Y-15457293D01*
X13046015Y-15457293D02*
X13036491Y-15495388D01*
X13036491Y-15495388D02*
X13026967Y-15514436D01*
X13026967Y-15514436D02*
X13017444Y-15523960D01*
X13017444Y-15523960D02*
X12998396Y-15533484D01*
X12998396Y-15533484D02*
X12979348Y-15533484D01*
X12979348Y-15533484D02*
X12960301Y-15523960D01*
X12960301Y-15523960D02*
X12950777Y-15514436D01*
X12950777Y-15514436D02*
X12941253Y-15495388D01*
X12941253Y-15495388D02*
X12931729Y-15457293D01*
X12931729Y-15457293D02*
X12931729Y-15409674D01*
X12931729Y-15409674D02*
X12941253Y-15371579D01*
X12941253Y-15371579D02*
X12950777Y-15352531D01*
X12950777Y-15352531D02*
X12960301Y-15343008D01*
X12960301Y-15343008D02*
X12979348Y-15333484D01*
X13112682Y-15333484D02*
X13236491Y-15333484D01*
X13236491Y-15333484D02*
X13169825Y-15409674D01*
X13169825Y-15409674D02*
X13198396Y-15409674D01*
X13198396Y-15409674D02*
X13217444Y-15419198D01*
X13217444Y-15419198D02*
X13226967Y-15428722D01*
X13226967Y-15428722D02*
X13236491Y-15447769D01*
X13236491Y-15447769D02*
X13236491Y-15495388D01*
X13236491Y-15495388D02*
X13226967Y-15514436D01*
X13226967Y-15514436D02*
X13217444Y-15523960D01*
X13217444Y-15523960D02*
X13198396Y-15533484D01*
X13198396Y-15533484D02*
X13141253Y-15533484D01*
X13141253Y-15533484D02*
X13122206Y-15523960D01*
X13122206Y-15523960D02*
X13112682Y-15514436D01*
X13331729Y-15533484D02*
X13369825Y-15533484D01*
X13369825Y-15533484D02*
X13388872Y-15523960D01*
X13388872Y-15523960D02*
X13398396Y-15514436D01*
X13398396Y-15514436D02*
X13417444Y-15485865D01*
X13417444Y-15485865D02*
X13426967Y-15447769D01*
X13426967Y-15447769D02*
X13426967Y-15371579D01*
X13426967Y-15371579D02*
X13417444Y-15352531D01*
X13417444Y-15352531D02*
X13407920Y-15343008D01*
X13407920Y-15343008D02*
X13388872Y-15333484D01*
X13388872Y-15333484D02*
X13350777Y-15333484D01*
X13350777Y-15333484D02*
X13331729Y-15343008D01*
X13331729Y-15343008D02*
X13322206Y-15352531D01*
X13322206Y-15352531D02*
X13312682Y-15371579D01*
X13312682Y-15371579D02*
X13312682Y-15419198D01*
X13312682Y-15419198D02*
X13322206Y-15438246D01*
X13322206Y-15438246D02*
X13331729Y-15447769D01*
X13331729Y-15447769D02*
X13350777Y-15457293D01*
X13350777Y-15457293D02*
X13388872Y-15457293D01*
X13388872Y-15457293D02*
X13407920Y-15447769D01*
X13407920Y-15447769D02*
X13417444Y-15438246D01*
X13417444Y-15438246D02*
X13426967Y-15419198D01*
X13598396Y-15400150D02*
X13598396Y-15533484D01*
X13550777Y-15323960D02*
X13503158Y-15466817D01*
X13503158Y-15466817D02*
X13626967Y-15466817D01*
X13693634Y-15333484D02*
X13693634Y-15371579D01*
X13769825Y-15333484D02*
X13769825Y-15371579D01*
X14065063Y-15609674D02*
X14055539Y-15600150D01*
X14055539Y-15600150D02*
X14036491Y-15571579D01*
X14036491Y-15571579D02*
X14026968Y-15552531D01*
X14026968Y-15552531D02*
X14017444Y-15523960D01*
X14017444Y-15523960D02*
X14007920Y-15476341D01*
X14007920Y-15476341D02*
X14007920Y-15438246D01*
X14007920Y-15438246D02*
X14017444Y-15390627D01*
X14017444Y-15390627D02*
X14026968Y-15362055D01*
X14026968Y-15362055D02*
X14036491Y-15343008D01*
X14036491Y-15343008D02*
X14055539Y-15314436D01*
X14055539Y-15314436D02*
X14065063Y-15304912D01*
X14131729Y-15352531D02*
X14141253Y-15343008D01*
X14141253Y-15343008D02*
X14160301Y-15333484D01*
X14160301Y-15333484D02*
X14207920Y-15333484D01*
X14207920Y-15333484D02*
X14226968Y-15343008D01*
X14226968Y-15343008D02*
X14236491Y-15352531D01*
X14236491Y-15352531D02*
X14246015Y-15371579D01*
X14246015Y-15371579D02*
X14246015Y-15390627D01*
X14246015Y-15390627D02*
X14236491Y-15419198D01*
X14236491Y-15419198D02*
X14122206Y-15533484D01*
X14122206Y-15533484D02*
X14246015Y-15533484D01*
X14322206Y-15352531D02*
X14331729Y-15343008D01*
X14331729Y-15343008D02*
X14350777Y-15333484D01*
X14350777Y-15333484D02*
X14398396Y-15333484D01*
X14398396Y-15333484D02*
X14417444Y-15343008D01*
X14417444Y-15343008D02*
X14426968Y-15352531D01*
X14426968Y-15352531D02*
X14436491Y-15371579D01*
X14436491Y-15371579D02*
X14436491Y-15390627D01*
X14436491Y-15390627D02*
X14426968Y-15419198D01*
X14426968Y-15419198D02*
X14312682Y-15533484D01*
X14312682Y-15533484D02*
X14436491Y-15533484D01*
X14674587Y-15533484D02*
X14674587Y-15333484D01*
X14760301Y-15533484D02*
X14760301Y-15428722D01*
X14760301Y-15428722D02*
X14750777Y-15409674D01*
X14750777Y-15409674D02*
X14731730Y-15400150D01*
X14731730Y-15400150D02*
X14703158Y-15400150D01*
X14703158Y-15400150D02*
X14684110Y-15409674D01*
X14684110Y-15409674D02*
X14674587Y-15419198D01*
X14884110Y-15533484D02*
X14865063Y-15523960D01*
X14865063Y-15523960D02*
X14855539Y-15514436D01*
X14855539Y-15514436D02*
X14846015Y-15495388D01*
X14846015Y-15495388D02*
X14846015Y-15438246D01*
X14846015Y-15438246D02*
X14855539Y-15419198D01*
X14855539Y-15419198D02*
X14865063Y-15409674D01*
X14865063Y-15409674D02*
X14884110Y-15400150D01*
X14884110Y-15400150D02*
X14912682Y-15400150D01*
X14912682Y-15400150D02*
X14931730Y-15409674D01*
X14931730Y-15409674D02*
X14941253Y-15419198D01*
X14941253Y-15419198D02*
X14950777Y-15438246D01*
X14950777Y-15438246D02*
X14950777Y-15495388D01*
X14950777Y-15495388D02*
X14941253Y-15514436D01*
X14941253Y-15514436D02*
X14931730Y-15523960D01*
X14931730Y-15523960D02*
X14912682Y-15533484D01*
X14912682Y-15533484D02*
X14884110Y-15533484D01*
X15065063Y-15533484D02*
X15046015Y-15523960D01*
X15046015Y-15523960D02*
X15036491Y-15504912D01*
X15036491Y-15504912D02*
X15036491Y-15333484D01*
X15217444Y-15523960D02*
X15198396Y-15533484D01*
X15198396Y-15533484D02*
X15160301Y-15533484D01*
X15160301Y-15533484D02*
X15141253Y-15523960D01*
X15141253Y-15523960D02*
X15131730Y-15504912D01*
X15131730Y-15504912D02*
X15131730Y-15428722D01*
X15131730Y-15428722D02*
X15141253Y-15409674D01*
X15141253Y-15409674D02*
X15160301Y-15400150D01*
X15160301Y-15400150D02*
X15198396Y-15400150D01*
X15198396Y-15400150D02*
X15217444Y-15409674D01*
X15217444Y-15409674D02*
X15226968Y-15428722D01*
X15226968Y-15428722D02*
X15226968Y-15447769D01*
X15226968Y-15447769D02*
X15131730Y-15466817D01*
X15303158Y-15523960D02*
X15322206Y-15533484D01*
X15322206Y-15533484D02*
X15360301Y-15533484D01*
X15360301Y-15533484D02*
X15379349Y-15523960D01*
X15379349Y-15523960D02*
X15388872Y-15504912D01*
X15388872Y-15504912D02*
X15388872Y-15495388D01*
X15388872Y-15495388D02*
X15379349Y-15476341D01*
X15379349Y-15476341D02*
X15360301Y-15466817D01*
X15360301Y-15466817D02*
X15331730Y-15466817D01*
X15331730Y-15466817D02*
X15312682Y-15457293D01*
X15312682Y-15457293D02*
X15303158Y-15438246D01*
X15303158Y-15438246D02*
X15303158Y-15428722D01*
X15303158Y-15428722D02*
X15312682Y-15409674D01*
X15312682Y-15409674D02*
X15331730Y-15400150D01*
X15331730Y-15400150D02*
X15360301Y-15400150D01*
X15360301Y-15400150D02*
X15379349Y-15409674D01*
X15455539Y-15609674D02*
X15465063Y-15600150D01*
X15465063Y-15600150D02*
X15484111Y-15571579D01*
X15484111Y-15571579D02*
X15493634Y-15552531D01*
X15493634Y-15552531D02*
X15503158Y-15523960D01*
X15503158Y-15523960D02*
X15512682Y-15476341D01*
X15512682Y-15476341D02*
X15512682Y-15438246D01*
X15512682Y-15438246D02*
X15503158Y-15390627D01*
X15503158Y-15390627D02*
X15493634Y-15362055D01*
X15493634Y-15362055D02*
X15484111Y-15343008D01*
X15484111Y-15343008D02*
X15465063Y-15314436D01*
X15465063Y-15314436D02*
X15455539Y-15304912D01*
M02*
